# xmcd
#
# Track frame offsets: 
#        300
#        18545
#        34543
#        50080
#        68427
#        87387
#        107861
#        125666
#        143813
#        164733
#        180033
#        195034
#        212355
#
# Disc length: 3007 seconds
#
# Revision: 0
# Processed by: cddbd v1.5.2PL0 Copyright (c) Steve Scherf et al.
# Submitted via: ExactAudioCopy v1.0b1
#
DISCID=aa0bbb0d
DTITLE=Colin James - Fifteen
DYEAR=2012
DGENRE=Contemporary Blues
TTITLE0=Sweets Gone Sour
TTITLE1=I'm Diggin'
TTITLE2=Fool For You
TTITLE3=Shed A Little Light
TTITLE4=I Need You Bad
TTITLE5=Love For Life
TTITLE6=Sneakin' Sally Through The Alley
TTITLE7=Jealous Guy
TTITLE8=Finally Wrote A Song For You
TTITLE9=No Time To Get There
TTITLE10=Stone Faith
TTITLE11=Oh Well
TTITLE12=Shoulder To Cry On
EXTD=
EXTT0=
EXTT1=
EXTT2=
EXTT3=
EXTT4=
EXTT5=
EXTT6=
EXTT7=
EXTT8=
EXTT9=
EXTT10=
EXTT11=
EXTT12=
PLAYORDER=
